<svg xmlns="http://www.w3.org/2000/svg" xmlns:xlink="http://www.w3.org/1999/xlink" viewBox="0 0 497.25 511.25"><defs><style>.cls-1{fill:url(#linear-gradient);}.cls-2{fill:#1a1a1a;}.cls-3{fill:#1e1e1e;stroke:#1a1a1a;stroke-miterlimit:10;stroke-width:12px;}.cls-4{fill:url(#radial-gradient);}</style><linearGradient id="linear-gradient" x1="45.09" y1="255.63" x2="491.25" y2="255.63" gradientUnits="userSpaceOnUse"><stop offset="0" stop-color="#60646c"/><stop offset="1" stop-color="#a0a5b0"/></linearGradient><radialGradient id="radial-gradient" cx="205.78" cy="256.12" r="171.95" gradientUnits="userSpaceOnUse"><stop offset="0" stop-color="#62666e"/><stop offset="1" stop-color="#9da3ae"/></radialGradient></defs><title>Color2</title><g id="Layer_2" data-name="Layer 2"><g id="Layer_2-2" data-name="Layer 2"><path class="cls-1" d="M87.22,505.25c-26,0-42.13-21.36-42.13-55.73V61.74C45.09,27.36,61.23,6,87.22,6,98,6,110.31,9.78,122.7,16.93L458.52,210.82c21.11,12.19,32.73,28.1,32.73,44.81s-11.62,32.62-32.73,44.8L122.7,494.32c-12.39,7.15-24.66,10.93-35.48,10.93Z"/><path class="cls-2" d="M87.22,12c9.77,0,21,3.5,32.48,10.13L455.52,216c19.17,11.07,29.73,25.13,29.73,39.61s-10.56,28.54-29.73,39.6L119.7,489.13c-11.48,6.62-22.71,10.12-32.48,10.12-10.59,0-19.13-3.94-25.38-11.73-7-8.75-10.75-21.89-10.75-38V61.74c0-16.11,3.72-29.26,10.75-38C68.09,16,76.63,12,87.22,12m0-12C58.76,0,39.09,22.67,39.09,61.74V449.52c0,39.06,19.67,61.73,48.13,61.73,11.61,0,24.68-3.76,38.48-11.73L461.52,305.63c47.64-27.5,47.64-72.5,0-100L125.7,11.74C111.9,3.77,98.83,0,87.22,0Z"/></g><g id="Layer_1-2" data-name="Layer 1"><circle class="cls-3" cx="208.5" cy="255.55" r="202.5"/><path class="cls-4" d="M207.92,291a37.15,37.15,0,1,0-37.14-37.14A37.19,37.19,0,0,0,207.92,291Zm0-62.56a25.42,25.42,0,1,1-25.41,25.42A25.44,25.44,0,0,1,207.92,228.42Z"/><path class="cls-4" d="M158.25,245A50.67,50.67,0,0,1,173.58,217a18.15,18.15,0,0,0,2.72-23.15l-51.1-79.48a18.39,18.39,0,0,0-26.56-4.77A181,181,0,0,0,27.4,240.06a18.23,18.23,0,0,0,4.81,13.73,18.54,18.54,0,0,0,13.55,5.91h94.5A18,18,0,0,0,158.25,245Zm-117.43.79A6.39,6.39,0,0,1,39.09,241a169.31,169.31,0,0,1,66.64-122.06,6.5,6.5,0,0,1,3.93-1.32,6.84,6.84,0,0,1,5.68,3.09l51.09,79.49a6.51,6.51,0,0,1-.84,8.21A62.44,62.44,0,0,0,146.7,243a6.41,6.41,0,0,1-6.44,5H45.76A6.76,6.76,0,0,1,40.82,245.81Z"/><path class="cls-4" d="M388.45,240.06a181,181,0,0,0-71.24-130.51,18.4,18.4,0,0,0-26.57,4.77l-51.1,79.48A18.16,18.16,0,0,0,242.27,217,50.59,50.59,0,0,1,257.59,245a18.06,18.06,0,0,0,18,14.68h94.49a18.54,18.54,0,0,0,13.55-5.91A18.24,18.24,0,0,0,388.45,240.06ZM375,245.81a6.8,6.8,0,0,1-4.95,2.16H275.59a6.42,6.42,0,0,1-6.44-5,62.47,62.47,0,0,0-18.89-34.62,6.52,6.52,0,0,1-.85-8.22l51.1-79.48a6.65,6.65,0,0,1,4.49-3,6.49,6.49,0,0,1,5.12,1.22,169.31,169.31,0,0,1,66.63,122A6.34,6.34,0,0,1,375,245.81Z"/><path class="cls-4" d="M249.42,307.54a18.18,18.18,0,0,0-22.26-7.09,50.22,50.22,0,0,1-38.47,0,18.2,18.2,0,0,0-22.27,7.09L115.32,387a18.53,18.53,0,0,0-2.35,14.6,18.28,18.28,0,0,0,9,11.5,180.93,180.93,0,0,0,172,0,18.29,18.29,0,0,0,9-11.5,18.57,18.57,0,0,0-2.35-14.6Zm42.1,91.17a6.41,6.41,0,0,1-3.19,4.11,169.17,169.17,0,0,1-160.81,0,6.41,6.41,0,0,1-3.19-4.11,6.65,6.65,0,0,1,.86-5.32l51.1-79.5a6.61,6.61,0,0,1,5.53-3.08,6.1,6.1,0,0,1,2.36.47,61.94,61.94,0,0,0,47.48,0,6.48,6.48,0,0,1,7.89,2.61l51.11,79.5A6.65,6.65,0,0,1,291.52,398.71Z"/><path class="cls-4" d="M111.77,139.7A5.87,5.87,0,0,0,101.9,146l11,17.11a5.87,5.87,0,1,0,9.87-6.34Z"/><path class="cls-4" d="M145.05,208.18a5.86,5.86,0,0,0,4.93-9l-12.19-19a5.87,5.87,0,1,0-9.87,6.35l12.2,19A5.83,5.83,0,0,0,145.05,208.18Z"/><path class="cls-4" d="M339,169.32a5.87,5.87,0,0,0-9.86,6.37,142.93,142.93,0,0,1,21,54.1,5.87,5.87,0,0,0,5.78,4.89,6.58,6.58,0,0,0,1-.08,5.87,5.87,0,0,0,4.81-6.76A154.87,154.87,0,0,0,339,169.32Z"/><path class="cls-4" d="M313,138.53a5.87,5.87,0,1,0-7.9,8.68,143.58,143.58,0,0,1,10.35,10.44,5.87,5.87,0,1,0,8.74-7.83A158.89,158.89,0,0,0,313,138.53Z"/><path class="cls-4" d="M233.65,329.29a5.86,5.86,0,1,0-9.86,6.35l9.79,15.23a5.86,5.86,0,1,0,9.86-6.34Z"/><path class="cls-4" d="M256.65,365.06a5.87,5.87,0,0,0-9.87,6.35L262,395.08a5.86,5.86,0,1,0,9.86-6.35Z"/></g></g></svg>